<svg width="16" height="32" viewBox="0 0 16 32" fill="none" xmlns="http://www.w3.org/2000/svg">
<path d="M8.00049 0C3.58919 0 0.000488281 3.813 0.000488281 8.5V23.5C0.000488281 28.187 3.58919 32 8.00049 32C12.4118 32 16.0005 28.187 16.0005 23.5V8.5C16.0005 3.813 12.4118 0 8.00049 0ZM15.0593 23.5C15.0593 27.6355 11.8927 31 8.00049 31C4.10825 31 0.941665 27.6355 0.941665 23.5V8.5C0.941665 4.3645 4.10825 1 8.00049 1C11.8927 1 15.0593 4.3645 15.0593 8.5V23.5Z" fill="black"/>
<path d="M8.50221 5H7.56104V9H8.50221V5Z" fill="black"/>
</svg>
